<?xml version="1.0" encoding="UTF-8" standalone="no"?>
<svg
   xmlns:dc="http://purl.org/dc/elements/1.1/"
   xmlns:cc="http://creativecommons.org/ns#"
   xmlns:rdf="http://www.w3.org/1999/02/22-rdf-syntax-ns#"
   xmlns:svg="http://www.w3.org/2000/svg"
   xmlns="http://www.w3.org/2000/svg"
   version="1.1"
   id="svg5048"
   viewBox="0 0 82.658531 229.33333">
  <metadata
     id="metadata5054">
    <rdf:RDF>
      <cc:Work
         rdf:about="">
        <dc:format>image/svg+xml</dc:format>
        <dc:type
           rdf:resource="http://purl.org/dc/dcmitype/StillImage" />
        <dc:title></dc:title>
      </cc:Work>
    </rdf:RDF>
  </metadata>
  <defs
     id="defs5052" />
  <path
     style="fill:#f9f9f9;stroke-width:1.33333325"
     d="m 6.7390912,221.8121 c 2.08658,-4.13668 3.7937898,-9.63412 3.7937898,-12.21653 0,-2.58243 -2.4630398,-12.24787 -5.4734098,-21.47877 C 0.126981,172.99201 -0.356729,170.32462 0.164971,161.12661 c 0.44371,-7.82284 1.48852,-12.02692 4.47341,-18 l 3.8945002,-7.79328 7.3079098,-0.41369 7.30791,-0.4137 -2.85111,3.08036 c -6.85467,7.40586 -9.10245,14.31658 -9.02498,27.74703 0.0662,11.47916 0.4987,13.60417 4.61318,22.66667 5.48297,12.0767 6.23168,24.50922 2.10776,35 -2.47912,6.30658 -2.51614,6.33333 -8.7689398,6.33333 H 2.945301 Z m 26.4604498,7.0225 c 0,-0.2743 1.45472,-3.1243 3.23271,-6.33334 5.62952,-10.1605 5.56335,-13.4103 -0.64885,-31.86581 -4.82177,-14.32473 -5.59478,-18.17552 -5.5651,-27.72277 0.0302,-9.71595 0.55689,-12.14848 4.25808,-19.66667 l 4.22359,-8.57935 h 6.59674 6.59674 l -4.63334,7 c -5.34929,8.08167 -8.03251,18.74424 -6.97145,27.70318 0.4072,3.43814 2.94539,11.88645 5.64043,18.774 4.40718,11.26317 4.83741,13.46165 4.27718,21.85616 -0.34258,5.13333 -1.57863,11.58333 -2.74677,14.33333 -2.01099,4.73421 -2.44644,5 -8.19192,5 -3.33742,0 -6.06804,-0.22443 -6.06804,-0.49873 z m 33.40456,-6.97 c 2.21563,-4.21198 3.92877,-9.53902 3.92877,-12.21654 0,-2.61129 -2.4,-12.12481 -5.33333,-21.14116 -3.94638,-12.1302 -5.33333,-18.60014 -5.33333,-24.87928 0,-9.10418 2.82306,-19.36817 6.95708,-25.29429 2.20897,-3.16657 3.46329,-3.66667 9.19654,-3.66667 h 6.6387 l -4.00994,5 c -5.56355,6.93719 -8.11572,15.07039 -8.11572,25.86302 0,7.47889 0.91628,11.49021 4.91088,21.49902 5.70327,14.29007 6.42203,24.07274 2.59392,35.30463 l -2.38577,7 h -6.48829 -6.48829 z M 26.844461,108.97914 c -8.23804,-8.26148 -14.97825,-15.623331 -14.97825,-16.359674 0,-0.736341 5.6993,-7.014405 12.66511,-13.95125 l 12.6651,-12.612447 11.3349,11.276011 c 6.23419,6.201805 11.33489,11.769466 11.33489,12.372579 0,0.603114 -3.908,5.101838 -8.68444,9.997168 l -8.68445,8.900603 -7.53441,-7.53442 c -7.49094,-7.490936 -7.52151,-7.55412 -5.29699,-10.949161 1.23059,-1.87811 3.75138,-4.406728 5.60178,-5.619152 3.20783,-2.101851 3.51711,-2.060887 6.64809,0.880516 5.30337,4.982256 3.52062,10.762624 -2.38292,7.726336 -3.0663,-1.577056 -3.01109,0.533745 0.0873,3.337748 2.27174,2.05589 2.69959,1.90283 6.95574,-2.4884 l 4.53511,-4.679044 -6.94273,-6.942739 -6.94274,-6.942737 -8.013,7.929389 c -4.40715,4.361163 -8.013,8.562247 -8.013,9.33574 0,0.773493 4.80502,6.183191 10.67783,12.021564 l 10.67784,10.61521 12.31171,-12.31171 12.3117,-12.311708 -27.6562,-27.679749 C 24.311501,47.765952 11.866211,34.51962 11.866211,33.553521 11.866211,30.947939 41.478051,0 43.971141,0 c 2.54763,0 30.56173,28.354023 30.56173,30.932567 0,0.982721 -5.6984,7.46148 -12.66313,14.397241 l -12.66312,12.610476 -10.09686,-9.970143 c -5.55328,-5.48358 -10.60921,-10.895396 -11.23542,-12.026258 -0.83101,-1.500708 0.67014,-4.118118 5.55728,-9.689661 9.97292,-11.369571 10.55152,-11.498881 18.43902,-4.121053 3.66423,3.427458 6.66223,7.287479 6.66223,8.577829 0,1.290347 -2.1279,4.214415 -4.72868,6.497929 -3.92106,3.442734 -5.18483,3.907724 -7.39941,2.722518 -3.79697,-2.032081 -6.13098,-7.539041 -4.06913,-9.600894 1.2406,-1.240593 2.18496,-1.229997 4.2305,0.04747 3.30335,2.062973 3.45072,0.10828 0.21276,-2.822024 -2.26981,-2.054155 -2.68064,-1.921654 -6.59397,2.126682 L 36.011601,34 l 6.7857,7.101863 6.78571,7.101864 7.80826,-7.726792 c 4.29455,-4.249736 7.80827,-8.359651 7.80827,-9.133144 0,-0.773493 -4.80502,-6.183194 -10.67783,-12.021562 L 43.843871,8.7070205 31.673831,20.877059 19.503791,33.0471 l 3.98043,3.809783 c 2.18924,2.09538 14.92489,15.010834 28.30145,28.70101 l 24.32101,24.89123 -15.60394,16.775437 C 51.920581,116.45105 44.206681,124 43.360761,124 c -0.84593,0 -8.27826,-6.75939 -16.5163,-15.02086 z"
     id="path5601" />
</svg>
